<svg width="100%" height="100%" viewBox="0 0 873 251" version="1.1" xmlns="http://www.w3.org/2000/svg" xmlns:xlink="http://www.w3.org/1999/xlink" xml:space="preserve" xmlns:serif="http://www.serif.com/" style="fill-rule:evenodd;clip-rule:evenodd;stroke-linejoin:round;stroke-miterlimit:2;">
    <g transform="matrix(1,0,0,1,-7196.35,-977.837)">
        <g transform="matrix(1,0,0,1,6892.01,0)">
            <g transform="matrix(0.927099,0,0,0.964549,-3784.95,-793.257)">
                <text x="4411.82px" y="2080.84px" style="font-family:'SpaceGrotesk-Bold', 'Space Grotesk';font-weight:700;font-size:77.757px;fill:white;">M<tspan x="4478.85px 4522.23px 4551.47px 4591.41px 4633.47px 4667.37px 4715.42px 4734.55px 4777.15px 4821.16px " y="2080.84px 2080.84px 2080.84px 2080.84px 2080.84px 2080.84px 2080.84px 2080.84px 2080.84px 2080.84px ">arketplace</tspan></text>
            </g>
        </g>
        <g transform="matrix(1,0,0,1,6892.01,0)">
            <g transform="matrix(0.712135,0,0,0.740901,-2850.46,-520.662)">
                <text x="4411.82px" y="2219.93px" style="font-family:'SpaceGrotesk-Bold', 'Space Grotesk';font-weight:700;font-size:276.468px;fill:white;">K<tspan x="4579.36px 4749.11px 4910.57px 5083.08px 5260.01px 5429.76px " y="2219.93px 2219.93px 2219.93px 2219.93px 2219.93px 2219.93px ">APCDAM</tspan></text>
            </g>
        </g>
    </g>
</svg>