<svg width="535" height="155" viewBox="0 0 535 155" fill="none" xmlns="http://www.w3.org/2000/svg">
<mask id="mask0_4_11" style="mask-type:alpha" maskUnits="userSpaceOnUse" x="33" y="0" width="129" height="129">
<circle cx="97.7751" cy="64.2249" r="64.2249" fill="#356FBB"/>
</mask>
<g mask="url(#mask0_4_11)">
<circle cx="97.7751" cy="64.2249" r="64.2249" fill="url(#paint0_linear_4_11)"/>
<path d="M41.8916 46.8038L59.5447 54.5538L57.7678 57.9802L41.8916 46.8038Z" fill="white"/>
<path d="M45.8957 39.6374L62.3745 49.6448L60.1619 52.8073L45.8957 39.6374Z" fill="white"/>
<path d="M50.8088 33.0609L65.8262 45.1512L63.2164 47.9947L50.8088 33.0609Z" fill="white"/>
<path d="M56.5454 27.1886L69.8398 41.1512L66.8782 43.6263L56.5454 27.1886Z" fill="white"/>
<path d="M63.005 22.1228L74.3449 37.7146L71.0832 39.7781L63.005 22.1228Z" fill="white"/>
<path d="M70.0758 17.9519L79.2636 34.9012L75.7585 36.5173L70.0758 17.9519Z" fill="white"/>
<path d="M77.6342 14.7484L84.5099 32.7601L80.8226 33.9005L77.6342 14.7484Z" fill="white"/>
<path d="M85.5486 12.5683L89.9924 31.3286L86.187 31.9735L85.5486 12.5683Z" fill="white"/>
<path d="M93.681 11.4494L95.6156 30.6315L91.7584 30.7696L93.681 11.4494Z" fill="white"/>
<path d="M101.89 11.4111L101.282 30.6809L97.4397 30.3099L101.89 11.4111Z" fill="white"/>
<path d="M110.033 12.4544L106.892 31.4762L103.132 30.6025L110.033 12.4544Z" fill="white"/>
<path d="M117.967 14.5608L112.348 33.0033L108.737 31.6421L117.967 14.5608Z" fill="white"/>
<path d="M125.555 17.6936L117.557 35.2357L114.156 33.4107L125.555 17.6936Z" fill="white"/>
<path d="M132.664 21.7986L122.425 38.1346L119.294 35.8776L132.664 21.7986Z" fill="white"/>
<path d="M139.17 26.8039L126.87 41.6493L124.063 38.9997L139.17 26.8039Z" fill="white"/>
<path d="M144.962 32.6226L130.813 45.7188L128.38 42.7226L144.962 32.6226Z" fill="white"/>
<path d="M149.936 39.1531L134.186 50.272L132.168 46.9815L149.936 39.1531Z" fill="white"/>
<path d="M154.006 46.2819L136.929 55.2298L135.363 51.7023L154.006 46.2819Z" fill="white"/>
<path d="M157.103 53.8846L138.996 60.5057L137.908 56.8026L157.103 53.8846Z" fill="white"/>
<path d="M159.171 61.829L140.35 66.0079L139.759 62.1937L159.171 61.829Z" fill="white"/>
<path d="M160.175 69.9765L140.968 71.6404L140.884 67.7816L160.175 69.9765Z" fill="white"/>
<path d="M160.098 78.1853L140.839 77.3052L141.264 73.4691L160.098 78.1853Z" fill="white"/>
<path d="M158.94 86.3124L139.964 82.9037L140.891 79.157L158.94 86.3124Z" fill="white"/>
<path d="M156.722 94.2162L138.36 88.3383L139.772 84.7462L156.722 94.2162Z" fill="white"/>
<path d="M153.482 101.759L136.055 93.5143L137.928 90.1394L153.482 101.759Z" fill="white"/>
<path d="M149.278 108.81L133.088 98.3417L135.389 95.2428L149.278 108.81Z" fill="white"/>
<path d="M144.181 115.245L129.51 102.736L132.199 99.9673L144.181 115.245Z" fill="white"/>
<path d="M138.281 120.953L125.386 106.621L128.416 104.231L138.281 120.953Z" fill="white"/>
<path d="M131.681 125.835L120.786 109.93L124.104 107.959L131.681 125.835Z" fill="white"/>
<path d="M124.496 129.805L115.79 112.603L119.339 111.086L124.496 129.805Z" fill="white"/>
<path d="M116.85 132.794L110.485 114.595L114.203 113.559L116.85 132.794Z" fill="white"/>
<path d="M108.877 134.75L104.964 115.872L108.786 115.334L108.877 134.75Z" fill="white"/>
<path d="M100.716 135.639L99.3236 116.41L103.183 116.381L100.716 135.639Z" fill="white"/>
<path d="M92.5096 135.446L93.6611 116.201L97.4909 116.68L92.5096 135.446Z" fill="white"/>
<path d="M84.3995 134.173L88.0754 115.248L91.8087 116.227L84.3995 134.173Z" fill="white"/>
<path d="M76.5279 131.844L82.6641 113.567L86.2359 115.03L76.5279 131.844Z" fill="white"/>
<path d="M69.0316 128.498L77.5213 111.189L80.8694 113.109L69.0316 128.498Z" fill="white"/>
<path d="M62.0409 124.195L72.7361 108.154L75.8022 110.498L62.0409 124.195Z" fill="white"/>
<path d="M55.6778 119.008L68.3923 104.515L71.123 107.243L55.6778 119.008Z" fill="white"/>
<path d="M50.0535 113.028L64.5658 100.336L66.9135 103.4L50.0535 113.028Z" fill="white"/>
<path d="M45.2657 106.36L61.3231 95.6896L63.2469 99.0357L45.2657 106.36Z" fill="white"/>
<path d="M41.3975 99.1193L58.7202 90.6566L60.1866 94.2269L41.3975 99.1193Z" fill="white"/>
<path d="M38.5165 91.4323L56.8028 85.3245L57.7862 89.0568L38.5165 91.4323Z" fill="white"/>
<path d="M36.6729 83.4328L55.6043 79.7863L56.0876 83.6156L36.6729 83.4328Z" fill="white"/>
<path d="M35.8989 75.2602L55.1456 74.1385L55.1205 77.9981L35.8989 75.2602Z" fill="white"/>
<path d="M36.2079 67.0569L55.4348 68.4796L54.9016 72.3023L36.2079 67.0569Z" fill="white"/>
<path d="M37.5944 58.9657L56.4664 62.908L55.4344 66.6272L37.5944 58.9657Z" fill="white"/>
<g filter="url(#filter0_f_4_11)">
<ellipse cx="98.2545" cy="78.939" rx="51.284" ry="51.5237" fill="white"/>
</g>
<g filter="url(#filter1_f_4_11)">
<ellipse cx="98.2545" cy="78.939" rx="51.284" ry="51.5237" fill="white"/>
</g>
<g filter="url(#filter2_f_4_11)">
<ellipse cx="98.2545" cy="78.939" rx="51.284" ry="51.5237" fill="white"/>
</g>
<g filter="url(#filter3_f_4_11)">
<ellipse cx="98.2545" cy="78.939" rx="51.284" ry="51.5237" fill="white"/>
</g>
</g>
<path fill-rule="evenodd" clip-rule="evenodd" d="M20.1492 154.432C3.27821 147.338 -0.300487 133.263 0.01904 127.112C9.84445 125.675 46.2706 105.065 51.0635 101.95C54.8978 99.4574 60.17 98.5148 62.3268 98.355C62.3268 96.6775 62.2309 93.3704 61.8475 93.5621C61.3682 93.8018 59.9303 93.5621 59.6907 93.3225C59.5558 93.1876 59.9525 91.6097 60.325 90.128C60.6142 88.9776 60.8889 87.8852 60.8889 87.571C60.8889 87.3258 61.084 86.4674 61.3127 85.4615C61.7544 83.5181 62.3212 81.0244 61.8475 81.3403C61.4863 81.581 61.3066 82.6081 61.0956 83.8137C60.8866 85.0079 60.647 86.3774 60.17 87.3314C59.4031 88.8651 58.5723 87.9704 58.2528 87.3314C58.1729 86.2929 58.2049 83.3053 58.9717 79.6627C59.7386 76.0201 63.2853 73.6716 64.9629 72.9527H67.8386L74.0694 76.5474C74.0694 63.319 80.7794 57.6154 84.1345 56.4172H88.4481C91.3238 56.2255 95.3978 60.9704 97.0753 63.3669C97.8422 59.5326 102.507 56.4971 104.744 55.4586H110.256C120.033 58.5261 121.04 71.2752 120.321 77.2663L124.155 81.1006L133.022 75.3491C133.102 75.2692 133.645 75.1574 135.179 75.3491C136.713 75.5408 137.256 77.0266 137.336 77.7456C137.256 81.7397 137.144 90.1113 137.336 91.645C137.527 93.1787 135.179 93.8817 133.981 94.0414H124.874C123.037 96.5178 119.218 101.614 118.643 102.189C117.924 102.908 116.726 103.627 115.288 102.908C114.138 102.333 114.489 100.751 114.809 100.033L123.197 88.29L130.626 87.8107V81.1006C130.146 81.3403 128.852 82.1071 127.51 83.2574C126.168 84.4077 124.395 84.3758 123.676 84.216C122.318 82.7781 119.266 80.0462 117.924 80.6213C116.582 81.1965 116.087 78.9438 116.007 77.7456C115.768 70.0769 113.85 65.5237 113.85 66.003C113.85 66.1264 113.946 66.949 114.083 68.1353C114.48 71.5558 115.227 77.9996 115.049 79.4231C114.857 80.9568 114.17 81.9793 113.85 82.2988L113.371 105.065C119.698 103.34 121.439 105.624 121.519 106.982C121.136 116.568 95.1581 121.361 82.2173 122.559C106.757 124.476 119.921 115.37 123.436 110.577L133.981 106.503C128.613 107.27 123.756 103.308 121.998 101.231C120.848 98.9302 122.957 98.5148 124.155 98.5947C125.305 100.32 128.948 102.349 130.626 103.148C138.294 104.346 142.368 98.5947 143.087 94.0414C143.662 90.3988 140.451 85.8136 138.774 83.9763C138.774 83.0178 138.821 81.1006 139.013 81.1006C139.253 81.1006 140.211 81.1006 140.691 81.5799C140.955 81.8441 141.656 80.8704 142.352 79.9031C142.919 79.1156 143.483 78.3324 143.806 78.2249C144.525 77.9852 146.921 78.9438 147.401 79.9024C147.88 80.861 146.442 81.1006 145.244 81.1006C144.285 81.1006 143.407 82.5385 143.087 83.2574C149.605 91.8846 144.845 100.112 141.649 103.148L146.442 101.47C157.466 96.4379 161.3 105.305 161.3 107.701C161.3 110.098 109.058 136.938 103.066 138.615C100.829 139.242 94.7139 138.899 87.1184 138.473C74.3764 137.759 57.4678 136.811 47.7084 139.814C35.2469 143.648 24.1433 151.157 20.1492 154.432ZM65.9214 94.2811V98.355C66.241 98.7545 66.928 99.3136 67.1197 98.355C67.3114 97.3965 67.1996 95.2397 67.1197 94.2811C66.88 93.642 66.3049 92.7474 65.9214 94.2811ZM70.7143 79.1834V83.7367L73.3504 91.1657C73.5102 91.8846 73.5901 93.3704 72.6315 93.5621C71.6729 93.7539 70.7942 93.8018 70.4747 93.8018L70.2351 98.5947C73.7498 99.5533 80.8274 101.47 81.0191 101.47C81.2108 101.47 80.7794 92.8432 80.5398 88.5296L77.4244 88.7692C76.9451 88.5296 76.0824 87.6669 76.4658 86.1332C76.9451 84.216 80.3001 70.0769 80.3001 69.358C80.3001 68.6391 79.5812 69.1184 79.5812 69.358C79.5812 69.5497 78.6226 74.3906 78.1433 76.787C77.5842 78.145 75.9386 80.6692 73.8297 79.9024C71.7209 79.1355 70.8741 79.1036 70.7143 79.1834ZM86.5309 88.5296C86.2114 93.4024 85.6203 103.244 85.812 103.627C86.0516 104.107 87.7291 104.586 87.7291 104.346C87.7291 104.154 87.4096 93.7219 87.2498 88.5296C87.0361 88.1302 86.593 87.571 86.5309 88.5296ZM93.241 88.7692C92.7617 94.2012 91.851 105.209 92.0427 105.784C92.1392 106.074 92.158 106.208 92.2243 106.311C92.3225 106.465 92.5252 106.553 93.241 106.982C94.4392 107.701 101.629 108.42 102.108 108.18C102.491 107.989 102.268 104.426 102.108 102.669L101.389 82.2988C100.91 81.4201 99.951 79.471 99.951 78.7042C99.951 77.9373 101.069 70.0769 101.629 66.2426C101.389 65.6834 100.814 65.0444 100.43 66.9616C99.951 69.358 99.2321 76.787 99.2321 77.9852C99.2321 79.1834 97.0753 80.142 96.3564 78.9438C95.9991 78.3484 95.4644 75.8006 94.958 73.3876C94.4452 70.9442 93.9614 68.6391 93.7203 68.6391C93.3368 68.6391 93.0812 68.7988 93.0013 68.8787C94.4392 74.9497 97.267 87.1876 97.0753 87.571C96.8356 88.0503 96.3564 88.7692 95.8771 88.7692H93.241ZM107.38 89.2485C106.981 95.1598 106.23 106.982 106.421 106.982C106.456 106.982 106.514 106.987 106.59 106.993C107.043 107.031 108.099 107.119 108.099 106.503C108.099 105.784 107.859 89.2485 107.38 89.2485Z" fill="#356FBB"/>
<path fill-rule="evenodd" clip-rule="evenodd" d="M68.7972 65.0444C67.3413 63.5885 64.9809 63.5885 63.525 65.0444C62.0691 66.5003 62.0691 68.8607 63.525 70.3166C64.9809 71.7725 67.3413 71.7725 68.7972 70.3166C70.2531 68.8607 70.2531 66.5003 68.7972 65.0444Z" fill="#356FBB"/>
<path fill-rule="evenodd" clip-rule="evenodd" d="M80.3001 48.9882C80.3001 45.4122 82.9556 42.3455 86.5309 42.2781C90.1706 42.2095 93.0013 45.3479 93.0013 48.9882C93.0013 52.6285 90.1706 55.7668 86.5309 55.6982C82.9556 55.6309 80.3001 52.5641 80.3001 48.9882Z" fill="#356FBB"/>
<path fill-rule="evenodd" clip-rule="evenodd" d="M101.389 47.79C101.32 44.415 104.247 41.6638 107.62 41.7988C110.86 41.9286 113.437 44.5473 113.371 47.79C113.306 50.9658 110.794 53.4145 107.62 53.5414C104.311 53.6738 101.456 51.1007 101.389 47.79Z" fill="#356FBB"/>
<path fill-rule="evenodd" clip-rule="evenodd" d="M130.386 70.7959C130.094 68.4972 132.303 66.4823 134.46 66.4823C136.617 66.4823 139.492 69.358 139.972 70.7959C140.201 71.4822 140.344 72.8694 140.49 74.2689C140.616 75.4916 140.744 76.7237 140.93 77.5059C139.78 77.3142 138.534 73.2722 138.055 71.2752C138.055 71.2752 136.092 74.1751 134.22 74.1509C132.231 74.1252 130.637 72.7697 130.386 70.7959Z" fill="#356FBB"/>
<path d="M184.984 105V53.736H194.667V77.3744L214.176 53.736H225.995L204.564 79.012L227.348 105H215.102L194.667 81.6464V105H184.984ZM228.775 105L244.439 53.736H258.892L274.556 105H264.588L250.633 59.788H252.484L238.743 105H228.775ZM238.173 94.32V85.2776H265.229V94.32H238.173ZM280.937 105V53.736H302.582C303.08 53.736 303.745 53.7597 304.576 53.8072C305.43 53.8309 306.189 53.9021 306.854 54.0208C309.916 54.4955 312.419 55.5041 314.366 57.0468C316.335 58.5895 317.783 60.5356 318.709 62.8852C319.634 65.2111 320.097 67.8099 320.097 70.6816C320.097 73.5533 319.622 76.164 318.673 78.5136C317.748 80.8395 316.3 82.7737 314.33 84.3164C312.384 85.8591 309.892 86.8677 306.854 87.3424C306.189 87.4373 305.43 87.5085 304.576 87.556C303.721 87.6035 303.057 87.6272 302.582 87.6272H290.62V105H280.937ZM290.62 78.5848H302.155C302.653 78.5848 303.199 78.5611 303.792 78.5136C304.386 78.4661 304.932 78.3712 305.43 78.2288C306.735 77.8728 307.744 77.2795 308.456 76.4488C309.168 75.5944 309.654 74.6569 309.916 73.6364C310.2 72.5921 310.343 71.6072 310.343 70.6816C310.343 69.756 310.2 68.7829 309.916 67.7624C309.654 66.7181 309.168 65.7807 308.456 64.95C307.744 64.0956 306.735 63.4904 305.43 63.1344C304.932 62.992 304.386 62.8971 303.792 62.8496C303.199 62.8021 302.653 62.7784 302.155 62.7784H290.62V78.5848ZM349.246 106.068C344.119 106.068 339.693 104.953 335.967 102.722C332.265 100.491 329.405 97.3697 327.387 93.3588C325.394 89.3479 324.397 84.6843 324.397 79.368C324.397 74.0517 325.394 69.3881 327.387 65.3772C329.405 61.3663 332.265 58.2453 335.967 56.0144C339.693 53.7835 344.119 52.668 349.246 52.668C355.132 52.668 360.068 54.1276 364.055 57.0468C368.066 59.966 370.891 63.9176 372.528 68.9016L362.774 71.6072C361.824 68.4981 360.222 66.0892 357.968 64.3804C355.713 62.6479 352.806 61.7816 349.246 61.7816C345.994 61.7816 343.277 62.5055 341.093 63.9532C338.934 65.4009 337.308 67.442 336.216 70.0764C335.124 72.7108 334.579 75.808 334.579 79.368C334.579 82.928 335.124 86.0252 336.216 88.6596C337.308 91.294 338.934 93.3351 341.093 94.7828C343.277 96.2305 345.994 96.9544 349.246 96.9544C352.806 96.9544 355.713 96.0881 357.968 94.3556C360.222 92.6231 361.824 90.2141 362.774 87.1288L372.528 89.8344C370.891 94.8184 368.066 98.77 364.055 101.689C360.068 104.608 355.132 106.068 349.246 106.068ZM380.367 105V53.736H396.956C397.36 53.736 398.191 53.7479 399.448 53.7716C400.706 53.7953 401.917 53.8784 403.08 54.0208C407.209 54.5192 410.71 55.9551 413.582 58.3284C416.453 60.7017 418.637 63.7159 420.132 67.3708C421.627 71.0257 422.375 75.0248 422.375 79.368C422.375 83.7112 421.627 87.7103 420.132 91.3652C418.637 95.0201 416.453 98.0343 413.582 100.408C410.71 102.781 407.209 104.217 403.08 104.715C401.917 104.858 400.706 104.941 399.448 104.964C398.191 104.988 397.36 105 396.956 105H380.367ZM390.192 95.8864H396.956C397.597 95.8864 398.463 95.8745 399.555 95.8508C400.647 95.8033 401.632 95.6965 402.51 95.5304C404.741 95.0795 406.557 94.0352 407.957 92.3976C409.381 90.76 410.425 88.7901 411.09 86.488C411.778 84.1859 412.122 81.8125 412.122 79.368C412.122 76.8048 411.766 74.3721 411.054 72.07C410.366 69.7679 409.31 67.8217 407.886 66.2316C406.462 64.6415 404.67 63.6328 402.51 63.2056C401.632 63.0157 400.647 62.9089 399.555 62.8852C398.463 62.8615 397.597 62.8496 396.956 62.8496H390.192V95.8864ZM425.965 105L441.629 53.736H456.083L471.747 105H461.779L447.824 59.788H449.675L435.933 105H425.965ZM435.364 94.32V85.2776H462.42V94.32H435.364ZM478.128 105V53.736H486.814L503.76 87.7696L520.705 53.736H529.392V105H520.349V74.384L505.469 105H502.051L487.17 74.384V105H478.128Z" fill="#356FBB"/>
<defs>
<filter id="filter0_f_4_11" x="30.5787" y="11.0236" width="135.352" height="135.831" filterUnits="userSpaceOnUse" color-interpolation-filters="sRGB">
<feFlood flood-opacity="0" result="BackgroundImageFix"/>
<feBlend mode="normal" in="SourceGraphic" in2="BackgroundImageFix" result="shape"/>
<feGaussianBlur stdDeviation="8.19586" result="effect1_foregroundBlur_4_11"/>
</filter>
<filter id="filter1_f_4_11" x="30.5787" y="11.0236" width="135.352" height="135.831" filterUnits="userSpaceOnUse" color-interpolation-filters="sRGB">
<feFlood flood-opacity="0" result="BackgroundImageFix"/>
<feBlend mode="normal" in="SourceGraphic" in2="BackgroundImageFix" result="shape"/>
<feGaussianBlur stdDeviation="8.19586" result="effect1_foregroundBlur_4_11"/>
</filter>
<filter id="filter2_f_4_11" x="30.5787" y="11.0236" width="135.352" height="135.831" filterUnits="userSpaceOnUse" color-interpolation-filters="sRGB">
<feFlood flood-opacity="0" result="BackgroundImageFix"/>
<feBlend mode="normal" in="SourceGraphic" in2="BackgroundImageFix" result="shape"/>
<feGaussianBlur stdDeviation="8.19586" result="effect1_foregroundBlur_4_11"/>
</filter>
<filter id="filter3_f_4_11" x="30.5787" y="11.0236" width="135.352" height="135.831" filterUnits="userSpaceOnUse" color-interpolation-filters="sRGB">
<feFlood flood-opacity="0" result="BackgroundImageFix"/>
<feBlend mode="normal" in="SourceGraphic" in2="BackgroundImageFix" result="shape"/>
<feGaussianBlur stdDeviation="8.19586" result="effect1_foregroundBlur_4_11"/>
</filter>
<linearGradient id="paint0_linear_4_11" x1="97.7751" y1="0" x2="97.7751" y2="128.45" gradientUnits="userSpaceOnUse">
<stop offset="0.410448" stop-color="#356FBB"/>
<stop offset="0.740385" stop-color="white"/>
</linearGradient>
</defs>
</svg>
