<svg width="541" height="155" viewBox="0 0 541 155" fill="none" xmlns="http://www.w3.org/2000/svg">
<mask id="mask0_5_83" style="mask-type:alpha" maskUnits="userSpaceOnUse" x="33" y="0" width="129" height="129">
<circle cx="97.7751" cy="64.2249" r="64.2249" fill="#356FBB"/>
</mask>
<g mask="url(#mask0_5_83)">
<circle cx="97.7751" cy="64.2249" r="64.2249" fill="url(#paint0_linear_5_83)"/>
<path d="M41.8916 46.8038L59.5447 54.5538L57.7678 57.9802L41.8916 46.8038Z" fill="white"/>
<path d="M45.8957 39.6374L62.3745 49.6448L60.1619 52.8073L45.8957 39.6374Z" fill="white"/>
<path d="M50.8088 33.0609L65.8262 45.1512L63.2164 47.9947L50.8088 33.0609Z" fill="white"/>
<path d="M56.5454 27.1886L69.8398 41.1512L66.8782 43.6263L56.5454 27.1886Z" fill="white"/>
<path d="M63.005 22.1228L74.3449 37.7146L71.0832 39.7781L63.005 22.1228Z" fill="white"/>
<path d="M70.0758 17.9519L79.2636 34.9012L75.7585 36.5173L70.0758 17.9519Z" fill="white"/>
<path d="M77.6342 14.7484L84.5099 32.7601L80.8226 33.9005L77.6342 14.7484Z" fill="white"/>
<path d="M85.5486 12.5683L89.9924 31.3286L86.187 31.9735L85.5486 12.5683Z" fill="white"/>
<path d="M93.681 11.4494L95.6156 30.6315L91.7584 30.7696L93.681 11.4494Z" fill="white"/>
<path d="M101.89 11.4111L101.282 30.6809L97.4397 30.3099L101.89 11.4111Z" fill="white"/>
<path d="M110.033 12.4544L106.892 31.4762L103.132 30.6025L110.033 12.4544Z" fill="white"/>
<path d="M117.967 14.5608L112.348 33.0033L108.737 31.6421L117.967 14.5608Z" fill="white"/>
<path d="M125.555 17.6936L117.557 35.2357L114.156 33.4107L125.555 17.6936Z" fill="white"/>
<path d="M132.664 21.7986L122.425 38.1346L119.294 35.8776L132.664 21.7986Z" fill="white"/>
<path d="M139.17 26.8039L126.87 41.6493L124.063 38.9997L139.17 26.8039Z" fill="white"/>
<path d="M144.962 32.6226L130.813 45.7188L128.38 42.7226L144.962 32.6226Z" fill="white"/>
<path d="M149.936 39.1531L134.186 50.272L132.168 46.9815L149.936 39.1531Z" fill="white"/>
<path d="M154.006 46.2819L136.929 55.2298L135.363 51.7023L154.006 46.2819Z" fill="white"/>
<path d="M157.103 53.8846L138.996 60.5057L137.908 56.8026L157.103 53.8846Z" fill="white"/>
<path d="M159.171 61.829L140.35 66.0079L139.759 62.1937L159.171 61.829Z" fill="white"/>
<path d="M160.175 69.9765L140.968 71.6404L140.884 67.7816L160.175 69.9765Z" fill="white"/>
<path d="M160.098 78.1853L140.839 77.3052L141.264 73.4691L160.098 78.1853Z" fill="white"/>
<path d="M158.94 86.3124L139.964 82.9037L140.891 79.157L158.94 86.3124Z" fill="white"/>
<path d="M156.722 94.2162L138.36 88.3383L139.772 84.7462L156.722 94.2162Z" fill="white"/>
<path d="M153.482 101.759L136.055 93.5143L137.928 90.1394L153.482 101.759Z" fill="white"/>
<path d="M149.278 108.81L133.088 98.3417L135.389 95.2428L149.278 108.81Z" fill="white"/>
<path d="M144.181 115.245L129.51 102.736L132.199 99.9673L144.181 115.245Z" fill="white"/>
<path d="M138.281 120.953L125.386 106.621L128.416 104.231L138.281 120.953Z" fill="white"/>
<path d="M131.681 125.835L120.786 109.93L124.104 107.959L131.681 125.835Z" fill="white"/>
<path d="M124.496 129.805L115.79 112.603L119.339 111.086L124.496 129.805Z" fill="white"/>
<path d="M116.85 132.794L110.485 114.595L114.203 113.559L116.85 132.794Z" fill="white"/>
<path d="M108.877 134.75L104.964 115.872L108.786 115.334L108.877 134.75Z" fill="white"/>
<path d="M100.716 135.639L99.3236 116.41L103.183 116.381L100.716 135.639Z" fill="white"/>
<path d="M92.5096 135.446L93.6611 116.201L97.4909 116.68L92.5096 135.446Z" fill="white"/>
<path d="M84.3995 134.173L88.0754 115.248L91.8087 116.227L84.3995 134.173Z" fill="white"/>
<path d="M76.5279 131.844L82.6641 113.567L86.2359 115.03L76.5279 131.844Z" fill="white"/>
<path d="M69.0316 128.498L77.5213 111.189L80.8694 113.109L69.0316 128.498Z" fill="white"/>
<path d="M62.0409 124.195L72.7361 108.154L75.8022 110.498L62.0409 124.195Z" fill="white"/>
<path d="M55.6778 119.008L68.3923 104.515L71.123 107.243L55.6778 119.008Z" fill="white"/>
<path d="M50.0535 113.028L64.5658 100.336L66.9135 103.4L50.0535 113.028Z" fill="white"/>
<path d="M45.2657 106.36L61.3231 95.6896L63.2469 99.0357L45.2657 106.36Z" fill="white"/>
<path d="M41.3975 99.1193L58.7202 90.6566L60.1866 94.2269L41.3975 99.1193Z" fill="white"/>
<path d="M38.5165 91.4323L56.8028 85.3245L57.7862 89.0568L38.5165 91.4323Z" fill="white"/>
<path d="M36.6729 83.4328L55.6043 79.7863L56.0876 83.6156L36.6729 83.4328Z" fill="white"/>
<path d="M35.8989 75.2602L55.1456 74.1385L55.1205 77.9981L35.8989 75.2602Z" fill="white"/>
<path d="M36.2079 67.0569L55.4348 68.4796L54.9016 72.3023L36.2079 67.0569Z" fill="white"/>
<path d="M37.5944 58.9657L56.4664 62.908L55.4344 66.6272L37.5944 58.9657Z" fill="white"/>
<g filter="url(#filter0_f_5_83)">
<ellipse cx="98.2545" cy="78.939" rx="51.284" ry="51.5237" fill="white"/>
</g>
<g filter="url(#filter1_f_5_83)">
<ellipse cx="98.2545" cy="78.939" rx="51.284" ry="51.5237" fill="white"/>
</g>
<g filter="url(#filter2_f_5_83)">
<ellipse cx="98.2545" cy="78.939" rx="51.284" ry="51.5237" fill="white"/>
</g>
<g filter="url(#filter3_f_5_83)">
<ellipse cx="98.2545" cy="78.939" rx="51.284" ry="51.5237" fill="white"/>
</g>
</g>
<path fill-rule="evenodd" clip-rule="evenodd" d="M20.1492 154.432C3.27821 147.338 -0.300487 133.263 0.01904 127.112C9.84445 125.675 46.2706 105.065 51.0635 101.95C54.8978 99.4574 60.17 98.5148 62.3268 98.355C62.3268 96.6775 62.2309 93.3704 61.8475 93.5621C61.3682 93.8018 59.9303 93.5621 59.6907 93.3225C59.5558 93.1876 59.9525 91.6097 60.325 90.128C60.6142 88.9776 60.8889 87.8852 60.8889 87.571C60.8889 87.3258 61.084 86.4674 61.3127 85.4615C61.7544 83.5181 62.3212 81.0244 61.8475 81.3403C61.4863 81.581 61.3066 82.6081 61.0956 83.8137C60.8866 85.0079 60.647 86.3774 60.17 87.3314C59.4031 88.8651 58.5723 87.9704 58.2528 87.3314C58.1729 86.2929 58.2049 83.3053 58.9717 79.6627C59.7386 76.0201 63.2853 73.6716 64.9629 72.9527H67.8386L74.0694 76.5474C74.0694 63.319 80.7794 57.6154 84.1345 56.4172H88.4481C91.3238 56.2255 95.3978 60.9704 97.0753 63.3669C97.8422 59.5326 102.507 56.4971 104.744 55.4586H110.256C120.033 58.5261 121.04 71.2752 120.321 77.2663L124.155 81.1006L133.022 75.3491C133.102 75.2692 133.645 75.1574 135.179 75.3491C136.713 75.5408 137.256 77.0266 137.336 77.7456C137.256 81.7397 137.144 90.1113 137.336 91.645C137.527 93.1787 135.179 93.8817 133.981 94.0414H124.874C123.037 96.5178 119.218 101.614 118.643 102.189C117.924 102.908 116.726 103.627 115.288 102.908C114.138 102.333 114.489 100.751 114.809 100.033L123.197 88.29L130.626 87.8107V81.1006C130.146 81.3403 128.852 82.1071 127.51 83.2574C126.168 84.4077 124.395 84.3758 123.676 84.216C122.318 82.7781 119.266 80.0462 117.924 80.6213C116.582 81.1965 116.087 78.9438 116.007 77.7456C115.768 70.0769 113.85 65.5237 113.85 66.003C113.85 66.1264 113.946 66.949 114.083 68.1353C114.48 71.5558 115.227 77.9996 115.049 79.4231C114.857 80.9568 114.17 81.9793 113.85 82.2988L113.371 105.065C119.698 103.34 121.439 105.624 121.519 106.982C121.136 116.568 95.1581 121.361 82.2173 122.559C106.757 124.476 119.921 115.37 123.436 110.577L133.981 106.503C128.613 107.27 123.756 103.308 121.998 101.231C120.848 98.9302 122.957 98.5148 124.155 98.5947C125.305 100.32 128.948 102.349 130.626 103.148C138.294 104.346 142.368 98.5947 143.087 94.0414C143.662 90.3988 140.451 85.8136 138.774 83.9763C138.774 83.0178 138.821 81.1006 139.013 81.1006C139.253 81.1006 140.211 81.1006 140.691 81.5799C140.955 81.8441 141.656 80.8704 142.352 79.9031C142.919 79.1156 143.483 78.3324 143.806 78.2249C144.525 77.9852 146.921 78.9438 147.401 79.9024C147.88 80.861 146.442 81.1006 145.244 81.1006C144.285 81.1006 143.407 82.5385 143.087 83.2574C149.605 91.8846 144.845 100.112 141.649 103.148L146.442 101.47C157.466 96.4379 161.3 105.305 161.3 107.701C161.3 110.098 109.058 136.938 103.066 138.615C100.829 139.242 94.7139 138.899 87.1184 138.473C74.3764 137.759 57.4678 136.811 47.7084 139.814C35.2469 143.648 24.1433 151.157 20.1492 154.432ZM65.9214 94.2811V98.355C66.241 98.7545 66.928 99.3136 67.1197 98.355C67.3114 97.3965 67.1996 95.2397 67.1197 94.2811C66.88 93.642 66.3049 92.7474 65.9214 94.2811ZM70.7143 79.1834V83.7367L73.3504 91.1657C73.5102 91.8846 73.5901 93.3704 72.6315 93.5621C71.6729 93.7539 70.7942 93.8018 70.4747 93.8018L70.2351 98.5947C73.7498 99.5533 80.8274 101.47 81.0191 101.47C81.2108 101.47 80.7794 92.8432 80.5398 88.5296L77.4244 88.7692C76.9451 88.5296 76.0824 87.6669 76.4658 86.1332C76.9451 84.216 80.3001 70.0769 80.3001 69.358C80.3001 68.6391 79.5812 69.1184 79.5812 69.358C79.5812 69.5497 78.6226 74.3906 78.1433 76.787C77.5842 78.145 75.9386 80.6692 73.8297 79.9024C71.7209 79.1355 70.8741 79.1036 70.7143 79.1834ZM86.5309 88.5296C86.2114 93.4024 85.6203 103.244 85.812 103.627C86.0516 104.107 87.7291 104.586 87.7291 104.346C87.7291 104.154 87.4096 93.7219 87.2498 88.5296C87.0361 88.1302 86.593 87.571 86.5309 88.5296ZM93.241 88.7692C92.7617 94.2012 91.851 105.209 92.0427 105.784C92.1392 106.074 92.158 106.208 92.2243 106.311C92.3225 106.465 92.5252 106.553 93.241 106.982C94.4392 107.701 101.629 108.42 102.108 108.18C102.491 107.989 102.268 104.426 102.108 102.669L101.389 82.2988C100.91 81.4201 99.951 79.471 99.951 78.7042C99.951 77.9373 101.069 70.0769 101.629 66.2426C101.389 65.6834 100.814 65.0444 100.43 66.9616C99.951 69.358 99.2321 76.787 99.2321 77.9852C99.2321 79.1834 97.0753 80.142 96.3564 78.9438C95.9991 78.3484 95.4644 75.8006 94.958 73.3876C94.4452 70.9442 93.9614 68.6391 93.7203 68.6391C93.3368 68.6391 93.0812 68.7988 93.0013 68.8787C94.4392 74.9497 97.267 87.1876 97.0753 87.571C96.8356 88.0503 96.3564 88.7692 95.8771 88.7692H93.241ZM107.38 89.2485C106.981 95.1598 106.23 106.982 106.421 106.982C106.456 106.982 106.514 106.987 106.59 106.993C107.043 107.031 108.099 107.119 108.099 106.503C108.099 105.784 107.859 89.2485 107.38 89.2485Z" fill="#356FBB"/>
<path fill-rule="evenodd" clip-rule="evenodd" d="M68.7972 65.0444C67.3413 63.5885 64.9809 63.5885 63.525 65.0444C62.0691 66.5003 62.0691 68.8607 63.525 70.3166C64.9809 71.7725 67.3413 71.7725 68.7972 70.3166C70.2531 68.8607 70.2531 66.5003 68.7972 65.0444Z" fill="#356FBB"/>
<path fill-rule="evenodd" clip-rule="evenodd" d="M80.3001 48.9882C80.3001 45.4122 82.9556 42.3455 86.5309 42.2781C90.1706 42.2095 93.0013 45.3479 93.0013 48.9882C93.0013 52.6285 90.1706 55.7668 86.5309 55.6982C82.9556 55.6309 80.3001 52.5641 80.3001 48.9882Z" fill="#356FBB"/>
<path fill-rule="evenodd" clip-rule="evenodd" d="M101.389 47.79C101.32 44.415 104.247 41.6638 107.62 41.7988C110.86 41.9286 113.437 44.5473 113.371 47.79C113.306 50.9658 110.794 53.4145 107.62 53.5414C104.311 53.6738 101.456 51.1007 101.389 47.79Z" fill="#356FBB"/>
<path fill-rule="evenodd" clip-rule="evenodd" d="M130.386 70.7959C130.094 68.4972 132.303 66.4823 134.46 66.4823C136.617 66.4823 139.492 69.358 139.972 70.7959C140.201 71.4822 140.344 72.8694 140.49 74.2689C140.616 75.4916 140.744 76.7237 140.93 77.5059C139.78 77.3142 138.534 73.2722 138.055 71.2752C138.055 71.2752 136.092 74.1751 134.22 74.1509C132.231 74.1252 130.637 72.7697 130.386 70.7959Z" fill="#356FBB"/>
<path d="M182.86 33V13.8662H185.637V22.7953L193.65 13.8662H197.104L188.64 23.2072L197.729 33H194.168L185.637 23.8583V33H182.86ZM198.27 33L204.489 13.8662H208.488L214.707 33H211.824L206.097 15.5404H206.814L201.154 33H198.27ZM201.499 28.6816V26.0773H211.491V28.6816H201.499ZM217.091 33V13.8662H219.602L226.538 28.2564L233.434 13.8662H235.972V32.9867H233.341V19.8987L227.163 33H225.9L219.708 19.8987V33H217.091ZM239.695 33V13.8662H247.428C247.614 13.8662 247.844 13.8751 248.119 13.8928C248.394 13.9017 248.655 13.9282 248.903 13.9725C249.966 14.1408 250.852 14.504 251.56 15.0621C252.278 15.6201 252.814 16.3244 253.168 17.1748C253.522 18.0252 253.7 18.9641 253.7 19.9917C253.7 21.0281 253.522 21.9715 253.168 22.8219C252.814 23.6723 252.278 24.3765 251.56 24.9346C250.852 25.4926 249.966 25.8558 248.903 26.0241C248.655 26.0596 248.389 26.0861 248.106 26.1039C247.831 26.1216 247.605 26.1304 247.428 26.1304H242.472V33H239.695ZM242.472 23.4995H247.322C247.499 23.4995 247.694 23.4907 247.906 23.473C248.128 23.4553 248.336 23.4243 248.531 23.38C249.098 23.2471 249.554 23.0035 249.899 22.6492C250.245 22.286 250.493 21.8696 250.644 21.4001C250.794 20.9307 250.869 20.4612 250.869 19.9917C250.869 19.5222 250.794 19.0571 250.644 18.5965C250.493 18.127 250.245 17.7151 249.899 17.3608C249.554 16.9976 249.098 16.7496 248.531 16.6167C248.336 16.5635 248.128 16.5281 247.906 16.5104C247.694 16.4927 247.499 16.4838 247.322 16.4838H242.472V23.4995ZM253.704 33L259.922 13.8662H263.922L270.14 33H267.257L261.53 15.5404H262.247L256.587 33H253.704ZM256.932 28.6816V26.0773H266.925V28.6816H256.932ZM272.79 33V13.8662H275.567V30.3824H284.23V33H272.79ZM285.157 33L291.376 13.8662H295.375L301.594 33H298.71L292.983 15.5404H293.701L288.041 33H285.157ZM288.386 28.6816V26.0773H298.378V28.6816H288.386ZM309.298 33V13.8662H317.031C317.217 13.8662 317.447 13.8751 317.722 13.8928C317.996 13.9017 318.258 13.9282 318.506 13.9725C319.569 14.1408 320.455 14.504 321.163 15.0621C321.881 15.6201 322.417 16.3244 322.771 17.1748C323.125 18.0252 323.303 18.9641 323.303 19.9917C323.303 21.0281 323.125 21.9715 322.771 22.8219C322.417 23.6723 321.881 24.3765 321.163 24.9346C320.455 25.4926 319.569 25.8558 318.506 26.0241C318.258 26.0596 317.992 26.0861 317.709 26.1039C317.434 26.1216 317.208 26.1304 317.031 26.1304H312.075V33H309.298ZM312.075 23.4995H316.925C317.102 23.4995 317.297 23.4907 317.509 23.473C317.731 23.4553 317.939 23.4243 318.134 23.38C318.701 23.2471 319.157 23.0035 319.502 22.6492C319.848 22.286 320.096 21.8696 320.246 21.4001C320.397 20.9307 320.472 20.4612 320.472 19.9917C320.472 19.5222 320.397 19.0571 320.246 18.5965C320.096 18.127 319.848 17.7151 319.502 17.3608C319.157 16.9976 318.701 16.7496 318.134 16.6167C317.939 16.5635 317.731 16.5281 317.509 16.5104C317.297 16.4927 317.102 16.4838 316.925 16.4838H312.075V23.4995ZM323.306 33L329.525 13.8662H333.524L339.743 33H336.86L331.133 15.5404H331.85L326.19 33H323.306ZM326.535 28.6816V26.0773H336.527V28.6816H326.535ZM342.127 33V13.8662H349.86C350.046 13.8662 350.276 13.8751 350.551 13.8928C350.826 13.9017 351.087 13.9282 351.335 13.9725C352.398 14.1408 353.284 14.504 353.992 15.0621C354.71 15.6201 355.246 16.3244 355.6 17.1748C355.954 18.0252 356.132 18.9641 356.132 19.9917C356.132 21.5153 355.742 22.8307 354.962 23.938C354.183 25.0364 353.014 25.723 351.454 25.9976L350.325 26.1304H344.904V33H342.127ZM353.315 33L349.541 25.2136L352.345 24.4961L356.49 33H353.315ZM344.904 23.4995H349.754C349.931 23.4995 350.126 23.4907 350.338 23.473C350.56 23.4553 350.768 23.4243 350.963 23.38C351.53 23.2471 351.986 23.0035 352.331 22.6492C352.677 22.286 352.925 21.8696 353.076 21.4001C353.226 20.9307 353.301 20.4612 353.301 19.9917C353.301 19.5222 353.226 19.0571 353.076 18.5965C352.925 18.127 352.677 17.7151 352.331 17.3608C351.986 16.9976 351.53 16.7496 350.963 16.6167C350.768 16.5635 350.56 16.5281 350.338 16.5104C350.126 16.4927 349.931 16.4838 349.754 16.4838H344.904V23.4995ZM359.411 33V13.8662H371.635V16.4838H362.188V21.8519H370.041V24.4695H362.188V30.3824H371.635V33H359.411ZM374.826 33V13.8662H377.643L387.064 28.0837V13.8662H389.881V33H387.064L377.643 18.7692V33H374.826ZM398.359 33V16.4838H391.995V13.8662H407.501V16.4838H401.136V33H398.359ZM416.564 33.3986C415.19 33.3986 413.95 33.1639 412.843 32.6944C411.745 32.216 410.837 31.5384 410.119 30.6614C409.41 29.7756 408.95 28.7259 408.737 27.5123L411.634 27.0738C411.926 28.2431 412.537 29.1555 413.468 29.811C414.398 30.4577 415.483 30.781 416.723 30.781C417.494 30.781 418.202 30.6614 418.849 30.4223C419.496 30.1742 420.014 29.8243 420.404 29.3726C420.802 28.9119 421.001 28.3627 421.001 27.7249C421.001 27.3795 420.939 27.0738 420.815 26.8081C420.7 26.5423 420.536 26.312 420.324 26.1172C420.12 25.9134 419.868 25.7407 419.566 25.5989C419.274 25.4484 418.951 25.3199 418.596 25.2136L413.693 23.7653C413.215 23.6236 412.728 23.442 412.232 23.2205C411.736 22.9902 411.28 22.6934 410.863 22.3303C410.456 21.9582 410.124 21.502 409.867 20.9617C409.61 20.4125 409.481 19.7481 409.481 18.9686C409.481 17.7904 409.783 16.7939 410.385 15.9789C410.996 15.1551 411.82 14.535 412.856 14.1187C413.893 13.6935 415.053 13.4809 416.338 13.4809C417.631 13.4986 418.787 13.7289 419.806 14.1718C420.833 14.6147 421.684 15.2525 422.357 16.0852C423.039 16.909 423.508 17.91 423.765 19.0881L420.789 19.5931C420.656 18.8755 420.373 18.2599 419.939 17.7461C419.504 17.2235 418.973 16.8249 418.344 16.5503C417.715 16.2668 417.033 16.1206 416.298 16.1118C415.589 16.0941 414.938 16.2004 414.345 16.4307C413.76 16.661 413.29 16.9843 412.936 17.4007C412.591 17.817 412.418 18.2953 412.418 18.8357C412.418 19.3672 412.573 19.7968 412.883 20.1246C413.193 20.4523 413.574 20.7136 414.026 20.9085C414.486 21.0945 414.942 21.2496 415.394 21.3736L418.929 22.3701C419.372 22.4941 419.872 22.6624 420.43 22.875C420.997 23.0788 421.542 23.3667 422.064 23.7387C422.596 24.1108 423.034 24.6068 423.38 25.2269C423.725 25.8381 423.898 26.6088 423.898 27.5389C423.898 28.5044 423.703 29.3548 423.313 30.0901C422.924 30.8164 422.388 31.4277 421.706 31.9237C421.032 32.4109 420.253 32.7785 419.367 33.0266C418.481 33.2746 417.547 33.3986 416.564 33.3986ZM190.846 69.3986C188.933 69.3986 187.303 68.9823 185.956 68.1496C184.61 67.3081 183.578 66.1388 182.86 64.6417C182.152 63.1447 181.797 61.4085 181.797 59.4331C181.797 57.4577 182.152 55.7215 182.86 54.2245C183.578 52.7274 184.61 51.5626 185.956 50.7299C187.303 49.8884 188.933 49.4676 190.846 49.4676C192.75 49.4676 194.376 49.8884 195.722 50.7299C197.078 51.5626 198.11 52.7274 198.818 54.2245C199.527 55.7215 199.881 57.4577 199.881 59.4331C199.881 61.4085 199.527 63.1447 198.818 64.6417C198.11 66.1388 197.078 67.3081 195.722 68.1496C194.376 68.9823 192.75 69.3986 190.846 69.3986ZM190.846 66.7544C192.201 66.7722 193.326 66.4754 194.221 65.8642C195.124 65.2441 195.802 64.3849 196.254 63.2864C196.706 62.1792 196.932 60.8947 196.932 59.4331C196.932 57.9715 196.706 56.6959 196.254 55.6064C195.802 54.5079 195.124 53.6531 194.221 53.0419C193.326 52.4307 192.201 52.1206 190.846 52.1118C189.491 52.0941 188.361 52.3908 187.458 53.002C186.563 53.6132 185.89 54.4725 185.438 55.5798C184.986 56.6871 184.756 57.9715 184.747 59.4331C184.738 60.8947 184.96 62.1747 185.411 63.2732C185.863 64.3627 186.541 65.2131 187.444 65.8243C188.357 66.4355 189.491 66.7456 190.846 66.7544ZM202.532 69V49.8662H213.866V52.6433H205.309V58.0379H212.271V60.8283H205.309V69H202.532ZM229.566 69.3986C227.653 69.3986 226.023 68.9823 224.676 68.1496C223.33 67.3081 222.298 66.1388 221.58 64.6417C220.872 63.1447 220.517 61.4085 220.517 59.4331C220.517 57.4577 220.872 55.7215 221.58 54.2245C222.298 52.7274 223.33 51.5626 224.676 50.7299C226.023 49.8884 227.653 49.4676 229.566 49.4676C231.772 49.4676 233.597 50.0257 235.04 51.1418C236.493 52.2579 237.503 53.7594 238.07 55.6462L235.253 56.4036C234.881 55.066 234.217 54.0163 233.26 53.2545C232.312 52.4927 231.081 52.1118 229.566 52.1118C228.211 52.1118 227.081 52.4174 226.178 53.0286C225.274 53.6398 224.592 54.4946 224.132 55.5931C223.68 56.6915 223.454 57.9715 223.454 59.4331C223.445 60.8947 223.667 62.1747 224.118 63.2732C224.579 64.3716 225.261 65.2264 226.165 65.8376C227.077 66.4488 228.211 66.7544 229.566 66.7544C231.081 66.7544 232.312 66.3735 233.26 65.6117C234.217 64.8411 234.881 63.7914 235.253 62.4626L238.07 63.22C237.503 65.1068 236.493 66.6083 235.04 67.7244C233.597 68.8406 231.772 69.3986 229.566 69.3986ZM240.992 69V49.8662H243.769V58.1177H253.336V49.8662H256.127V69H253.336V60.7353H243.769V69H240.992ZM260.125 69V49.8662H262.902V69H260.125ZM267.158 69V49.8662H269.935V66.3824H278.598V69H267.158ZM280.854 69V49.8662H286.847C287.024 49.8662 287.352 49.8706 287.83 49.8795C288.317 49.8884 288.783 49.9238 289.225 49.9858C290.722 50.1718 291.98 50.7077 292.999 51.5936C294.027 52.4794 294.802 53.6044 295.324 54.9686C295.847 56.3239 296.108 57.8121 296.108 59.4331C296.108 61.063 295.847 62.5601 295.324 63.9242C294.802 65.2795 294.027 66.4001 292.999 67.2859C291.98 68.1629 290.722 68.6944 289.225 68.8804C288.783 68.9424 288.317 68.9779 287.83 68.9867C287.352 68.9956 287.024 69 286.847 69H280.854ZM283.698 66.3558H286.847C287.148 66.3558 287.507 66.347 287.923 66.3292C288.34 66.3115 288.707 66.2761 289.026 66.2229C290.001 66.0369 290.789 65.6162 291.391 64.9606C292.003 64.2963 292.45 63.4813 292.733 62.5158C293.017 61.5502 293.159 60.5227 293.159 59.4331C293.159 58.3081 293.012 57.2673 292.72 56.3106C292.428 55.345 291.976 54.5389 291.365 53.8923C290.762 53.2368 289.983 52.8204 289.026 52.6433C288.707 52.5813 288.335 52.5458 287.91 52.537C287.494 52.5193 287.139 52.5104 286.847 52.5104H283.698V66.3558ZM299.202 69V49.8662H306.936C307.122 49.8662 307.352 49.8751 307.627 49.8928C307.901 49.9017 308.162 49.9282 308.411 49.9725C309.474 50.1408 310.359 50.504 311.068 51.0621C311.786 51.6201 312.321 52.3244 312.676 53.1748C313.03 54.0252 313.207 54.9641 313.207 55.9917C313.207 57.5153 312.817 58.8307 312.038 59.938C311.258 61.0364 310.089 61.723 308.53 61.9976L307.401 62.1304H301.979V69H299.202ZM310.39 69L306.617 61.2136L309.42 60.4961L313.566 69H310.39ZM301.979 59.4995H306.829C307.006 59.4995 307.201 59.4907 307.414 59.473C307.635 59.4553 307.844 59.4243 308.038 59.38C308.605 59.2471 309.062 59.0035 309.407 58.6492C309.753 58.286 310.001 57.8696 310.151 57.4001C310.302 56.9307 310.377 56.4612 310.377 55.9917C310.377 55.5222 310.302 55.0571 310.151 54.5965C310.001 54.127 309.753 53.7151 309.407 53.3608C309.062 52.9976 308.605 52.7496 308.038 52.6167C307.844 52.5635 307.635 52.5281 307.414 52.5104C307.201 52.4927 307.006 52.4838 306.829 52.4838H301.979V59.4995ZM316.486 69V49.8662H328.711V52.4838H319.263V57.8519H327.116V60.4695H319.263V66.3824H328.711V69H316.486ZM331.902 69V49.8662H334.719L344.139 64.0837V49.8662H346.956V69H344.139L334.719 54.7692V69H331.902ZM360.038 69L354.484 49.8662H357.394L361.42 64.3361L365.446 49.8795L368.369 49.8662L372.395 64.3361L376.421 49.8662H379.344L373.777 69H371.013L366.907 54.6895L362.801 69H360.038ZM381.839 69V49.8662H384.616V69H381.839ZM393.377 69V52.4838H387.012V49.8662H402.518V52.4838H396.154V69H393.377ZM404.645 69V49.8662H407.422V58.1177H416.989V49.8662H419.779V69H416.989V60.7353H407.422V69H404.645ZM182.86 105V85.8662H188.853C189.03 85.8662 189.358 85.8706 189.836 85.8795C190.323 85.8884 190.788 85.9238 191.231 85.9858C192.728 86.1718 193.986 86.7077 195.005 87.5936C196.032 88.4794 196.808 89.6044 197.33 90.9686C197.853 92.3239 198.114 93.8121 198.114 95.4331C198.114 97.063 197.853 98.5601 197.33 99.9242C196.808 101.28 196.032 102.4 195.005 103.286C193.986 104.163 192.728 104.694 191.231 104.88C190.788 104.942 190.323 104.978 189.836 104.987C189.358 104.996 189.03 105 188.853 105H182.86ZM185.704 102.356H188.853C189.154 102.356 189.513 102.347 189.929 102.329C190.345 102.312 190.713 102.276 191.032 102.223C192.006 102.037 192.795 101.616 193.397 100.961C194.008 100.296 194.456 99.4813 194.739 98.5158C195.023 97.5502 195.164 96.5227 195.164 95.4331C195.164 94.3081 195.018 93.2673 194.726 92.3106C194.434 91.345 193.982 90.5389 193.371 89.8923C192.768 89.2368 191.989 88.8204 191.032 88.6433C190.713 88.5813 190.341 88.5458 189.916 88.537C189.499 88.5193 189.145 88.5104 188.853 88.5104H185.704V102.356ZM201.474 105V85.8662H204.251V105H201.474ZM215.177 105.399C213.804 105.399 212.564 105.164 211.457 104.694C210.358 104.216 209.45 103.538 208.733 102.661C208.024 101.776 207.563 100.726 207.351 99.5123L210.248 99.0738C210.54 100.243 211.151 101.156 212.081 101.811C213.011 102.458 214.096 102.781 215.337 102.781C216.107 102.781 216.816 102.661 217.463 102.422C218.109 102.174 218.627 101.824 219.017 101.373C219.416 100.912 219.615 100.363 219.615 99.7249C219.615 99.3795 219.553 99.0738 219.429 98.8081C219.314 98.5423 219.15 98.312 218.937 98.1172C218.734 97.9134 218.481 97.7407 218.18 97.5989C217.888 97.4484 217.564 97.3199 217.21 97.2136L212.307 95.7653C211.829 95.6236 211.342 95.442 210.845 95.2205C210.349 94.9902 209.893 94.6934 209.477 94.3303C209.069 93.9582 208.737 93.502 208.48 92.9617C208.223 92.4125 208.095 91.7481 208.095 90.9686C208.095 89.7904 208.396 88.7939 208.999 87.9789C209.61 87.1551 210.434 86.535 211.47 86.1187C212.506 85.6935 213.667 85.4809 214.951 85.4809C216.245 85.4986 217.401 85.7289 218.419 86.1718C219.447 86.6147 220.297 87.2525 220.97 88.0852C221.653 88.909 222.122 89.91 222.379 91.0881L219.403 91.5931C219.27 90.8755 218.986 90.2599 218.552 89.7461C218.118 89.2235 217.587 88.8249 216.958 88.5503C216.329 88.2668 215.647 88.1206 214.911 88.1118C214.203 88.0941 213.552 88.2004 212.958 88.4307C212.374 88.661 211.904 88.9843 211.55 89.4007C211.204 89.817 211.031 90.2953 211.031 90.8357C211.031 91.3672 211.187 91.7968 211.497 92.1246C211.807 92.4523 212.187 92.7136 212.639 92.9085C213.1 93.0945 213.556 93.2496 214.008 93.3736L217.542 94.3701C217.985 94.4941 218.486 94.6624 219.044 94.875C219.611 95.0788 220.155 95.3667 220.678 95.7387C221.21 96.1108 221.648 96.6068 221.994 97.2269C222.339 97.8381 222.512 98.6088 222.512 99.5389C222.512 100.504 222.317 101.355 221.927 102.09C221.537 102.816 221.001 103.428 220.319 103.924C219.646 104.411 218.867 104.779 217.981 105.027C217.095 105.275 216.16 105.399 215.177 105.399ZM224.015 105L230.233 85.8662H234.233L240.451 105H237.568L231.841 87.5404H232.558L226.898 105H224.015ZM227.244 100.682V98.0773H237.236V100.682H227.244ZM242.835 105V85.8662H250.356C251.569 85.8662 252.588 86.1142 253.412 86.6103C254.236 87.1064 254.856 87.7486 255.272 88.537C255.688 89.3165 255.896 90.1403 255.896 91.0084C255.896 92.0626 255.635 92.9661 255.112 93.719C254.599 94.472 253.903 94.9858 253.026 95.2604L253 94.6093C254.222 94.9105 255.161 95.4995 255.817 96.3765C256.472 97.2446 256.8 98.2589 256.8 99.4193C256.8 100.544 256.574 101.523 256.122 102.356C255.679 103.188 255.028 103.84 254.169 104.309C253.319 104.77 252.287 105 251.073 105H242.835ZM245.652 102.356H250.648C251.277 102.356 251.839 102.236 252.335 101.997C252.84 101.758 253.235 101.417 253.518 100.974C253.81 100.522 253.956 99.9862 253.956 99.3662C253.956 98.7904 253.828 98.2722 253.571 97.8115C253.323 97.3421 252.96 96.9744 252.482 96.7087C252.012 96.4341 251.458 96.2968 250.821 96.2968H245.652V102.356ZM245.652 93.6792H250.316C250.83 93.6792 251.29 93.5773 251.698 93.3736C252.114 93.161 252.442 92.8598 252.681 92.47C252.929 92.0714 253.053 91.5931 253.053 91.035C253.053 90.2909 252.805 89.6797 252.309 89.2013C251.813 88.723 251.148 88.4838 250.316 88.4838H245.652V93.6792ZM259.71 105V85.8662H262.487V105H259.71ZM266.743 105V85.8662H269.52V102.382H278.183V105H266.743ZM280.705 105V85.8662H283.482V105H280.705ZM292.242 105V88.4838H285.878V85.8662H301.384V88.4838H295.019V105H292.242ZM303.776 105V85.8662H306.553V105H303.776ZM310.543 105V85.8662H322.768V88.4838H313.32V93.8519H321.173V96.4695H313.32V102.382H322.768V105H310.543ZM332.531 105.399C331.158 105.399 329.918 105.164 328.811 104.694C327.713 104.216 326.805 103.538 326.087 102.661C325.378 101.776 324.918 100.726 324.705 99.5123L327.602 99.0738C327.894 100.243 328.505 101.156 329.435 101.811C330.366 102.458 331.451 102.781 332.691 102.781C333.462 102.781 334.17 102.661 334.817 102.422C335.463 102.174 335.982 101.824 336.371 101.373C336.77 100.912 336.969 100.363 336.969 99.7249C336.969 99.3795 336.907 99.0738 336.783 98.8081C336.668 98.5423 336.504 98.312 336.292 98.1172C336.088 97.9134 335.836 97.7407 335.534 97.5989C335.242 97.4484 334.919 97.3199 334.564 97.2136L329.661 95.7653C329.183 95.6236 328.696 95.442 328.2 95.2205C327.704 94.9902 327.247 94.6934 326.831 94.3303C326.424 93.9582 326.091 93.502 325.835 92.9617C325.578 92.4125 325.449 91.7481 325.449 90.9686C325.449 89.7904 325.75 88.7939 326.353 87.9789C326.964 87.1551 327.788 86.535 328.824 86.1187C329.861 85.6935 331.021 85.4809 332.306 85.4809C333.599 85.4986 334.755 85.7289 335.774 86.1718C336.801 86.6147 337.651 87.2525 338.325 88.0852C339.007 88.909 339.476 89.91 339.733 91.0881L336.757 91.5931C336.624 90.8755 336.34 90.2599 335.906 89.7461C335.472 89.2235 334.941 88.8249 334.312 88.5503C333.683 88.2668 333.001 88.1206 332.266 88.1118C331.557 88.0941 330.906 88.2004 330.312 88.4307C329.728 88.661 329.258 88.9843 328.904 89.4007C328.559 89.817 328.386 90.2953 328.386 90.8357C328.386 91.3672 328.541 91.7968 328.851 92.1246C329.161 92.4523 329.542 92.7136 329.994 92.9085C330.454 93.0945 330.91 93.2496 331.362 93.3736L334.897 94.3701C335.339 94.4941 335.84 94.6624 336.398 94.875C336.965 95.0788 337.51 95.3667 338.032 95.7387C338.564 96.1108 339.002 96.6068 339.348 97.2269C339.693 97.8381 339.866 98.6088 339.866 99.5389C339.866 100.504 339.671 101.355 339.281 102.09C338.892 102.816 338.356 103.428 337.674 103.924C337 104.411 336.221 104.779 335.335 105.027C334.449 105.275 333.515 105.399 332.531 105.399ZM346.689 105L352.908 85.8662H356.907L363.126 105H360.242L354.515 87.5404H355.233L349.572 105H346.689ZM349.918 100.682V98.0773H359.91V100.682H349.918ZM371.926 105.399C370.553 105.399 369.313 105.164 368.206 104.694C367.107 104.216 366.199 103.538 365.482 102.661C364.773 101.776 364.313 100.726 364.1 99.5123L366.997 99.0738C367.289 100.243 367.9 101.156 368.83 101.811C369.76 102.458 370.846 102.781 372.086 102.781C372.856 102.781 373.565 102.661 374.212 102.422C374.858 102.174 375.377 101.824 375.766 101.373C376.165 100.912 376.364 100.363 376.364 99.7249C376.364 99.3795 376.302 99.0738 376.178 98.8081C376.063 98.5423 375.899 98.312 375.687 98.1172C375.483 97.9134 375.23 97.7407 374.929 97.5989C374.637 97.4484 374.314 97.3199 373.959 97.2136L369.056 95.7653C368.578 95.6236 368.091 95.442 367.595 95.2205C367.099 94.9902 366.642 94.6934 366.226 94.3303C365.819 93.9582 365.486 93.502 365.23 92.9617C364.973 92.4125 364.844 91.7481 364.844 90.9686C364.844 89.7904 365.145 88.7939 365.748 87.9789C366.359 87.1551 367.183 86.535 368.219 86.1187C369.256 85.6935 370.416 85.4809 371.7 85.4809C372.994 85.4986 374.15 85.7289 375.168 86.1718C376.196 86.6147 377.046 87.2525 377.72 88.0852C378.402 88.909 378.871 89.91 379.128 91.0881L376.152 91.5931C376.019 90.8755 375.735 90.2599 375.301 89.7461C374.867 89.2235 374.336 88.8249 373.707 88.5503C373.078 88.2668 372.396 88.1206 371.661 88.1118C370.952 88.0941 370.301 88.2004 369.707 88.4307C369.123 88.661 368.653 88.9843 368.299 89.4007C367.953 89.817 367.781 90.2953 367.781 90.8357C367.781 91.3672 367.936 91.7968 368.246 92.1246C368.556 92.4523 368.937 92.7136 369.388 92.9085C369.849 93.0945 370.305 93.2496 370.757 93.3736L374.291 94.3701C374.734 94.4941 375.235 94.6624 375.793 94.875C376.36 95.0788 376.905 95.3667 377.427 95.7387C377.959 96.1108 378.397 96.6068 378.743 97.2269C379.088 97.8381 379.261 98.6088 379.261 99.5389C379.261 100.504 379.066 101.355 378.676 102.09C378.287 102.816 377.751 103.428 377.069 103.924C376.395 104.411 375.616 104.779 374.73 105.027C373.844 105.275 372.91 105.399 371.926 105.399ZM389.418 105.399C388.045 105.399 386.805 105.164 385.697 104.694C384.599 104.216 383.691 103.538 382.974 102.661C382.265 101.776 381.804 100.726 381.592 99.5123L384.488 99.0738C384.781 100.243 385.392 101.156 386.322 101.811C387.252 102.458 388.337 102.781 389.577 102.781C390.348 102.781 391.057 102.661 391.703 102.422C392.35 102.174 392.868 101.824 393.258 101.373C393.657 100.912 393.856 100.363 393.856 99.7249C393.856 99.3795 393.794 99.0738 393.67 98.8081C393.555 98.5423 393.391 98.312 393.178 98.1172C392.974 97.9134 392.722 97.7407 392.421 97.5989C392.129 97.4484 391.805 97.3199 391.451 97.2136L386.548 95.7653C386.069 95.6236 385.582 95.442 385.086 95.2205C384.59 94.9902 384.134 94.6934 383.718 94.3303C383.31 93.9582 382.978 93.502 382.721 92.9617C382.464 92.4125 382.336 91.7481 382.336 90.9686C382.336 89.7904 382.637 88.7939 383.239 87.9789C383.85 87.1551 384.674 86.535 385.711 86.1187C386.747 85.6935 387.908 85.4809 389.192 85.4809C390.485 85.4986 391.641 85.7289 392.66 86.1718C393.688 86.6147 394.538 87.2525 395.211 88.0852C395.893 88.909 396.363 89.91 396.62 91.0881L393.643 91.5931C393.51 90.8755 393.227 90.2599 392.793 89.7461C392.359 89.2235 391.827 88.8249 391.198 88.5503C390.569 88.2668 389.887 88.1206 389.152 88.1118C388.443 88.0941 387.792 88.2004 387.199 88.4307C386.614 88.661 386.145 88.9843 385.79 89.4007C385.445 89.817 385.272 90.2953 385.272 90.8357C385.272 91.3672 385.427 91.7968 385.737 92.1246C386.047 92.4523 386.428 92.7136 386.88 92.9085C387.341 93.0945 387.797 93.2496 388.249 93.3736L391.783 94.3701C392.226 94.4941 392.726 94.6624 393.285 94.875C393.851 95.0788 394.396 95.3667 394.919 95.7387C395.45 96.1108 395.889 96.6068 396.234 97.2269C396.58 97.8381 396.753 98.6088 396.753 99.5389C396.753 100.504 396.558 101.355 396.168 102.09C395.778 102.816 395.242 103.428 394.56 103.924C393.887 104.411 393.107 104.779 392.222 105.027C391.336 105.275 390.401 105.399 389.418 105.399ZM407.57 105.399C405.656 105.399 404.027 104.982 402.68 104.15C401.334 103.308 400.302 102.139 399.584 100.642C398.875 99.1447 398.521 97.4085 398.521 95.4331C398.521 93.4577 398.875 91.7215 399.584 90.2245C400.302 88.7274 401.334 87.5626 402.68 86.7299C404.027 85.8884 405.656 85.4676 407.57 85.4676C409.474 85.4676 411.1 85.8884 412.446 86.7299C413.802 87.5626 414.834 88.7274 415.542 90.2245C416.251 91.7215 416.605 93.4577 416.605 95.4331C416.605 97.4085 416.251 99.1447 415.542 100.642C414.834 102.139 413.802 103.308 412.446 104.15C411.1 104.982 409.474 105.399 407.57 105.399ZM407.57 102.754C408.925 102.772 410.05 102.475 410.945 101.864C411.848 101.244 412.526 100.385 412.978 99.2864C413.43 98.1792 413.655 96.8947 413.655 95.4331C413.655 93.9715 413.43 92.6959 412.978 91.6064C412.526 90.5079 411.848 89.6531 410.945 89.0419C410.05 88.4307 408.925 88.1206 407.57 88.1118C406.215 88.0941 405.085 88.3908 404.182 89.002C403.287 89.6132 402.614 90.4725 402.162 91.5798C401.71 92.6871 401.48 93.9715 401.471 95.4331C401.462 96.8947 401.684 98.1747 402.135 99.2732C402.587 100.363 403.265 101.213 404.168 101.824C405.081 102.436 406.215 102.746 407.57 102.754ZM427.241 105.399C425.328 105.399 423.698 104.982 422.352 104.15C421.005 103.308 419.973 102.139 419.256 100.642C418.547 99.1447 418.193 97.4085 418.193 95.4331C418.193 93.4577 418.547 91.7215 419.256 90.2245C419.973 88.7274 421.005 87.5626 422.352 86.7299C423.698 85.8884 425.328 85.4676 427.241 85.4676C429.447 85.4676 431.272 86.0257 432.716 87.1418C434.168 88.2579 435.178 89.7594 435.745 91.6462L432.928 92.4036C432.556 91.066 431.892 90.0163 430.935 89.2545C429.987 88.4927 428.756 88.1118 427.241 88.1118C425.886 88.1118 424.757 88.4174 423.853 89.0286C422.95 89.6398 422.267 90.4946 421.807 91.5931C421.355 92.6915 421.129 93.9715 421.129 95.4331C421.12 96.8947 421.342 98.1747 421.794 99.2732C422.254 100.372 422.936 101.226 423.84 101.838C424.752 102.449 425.886 102.754 427.241 102.754C428.756 102.754 429.987 102.374 430.935 101.612C431.892 100.841 432.556 99.7914 432.928 98.4626L435.745 99.22C435.178 101.107 434.168 102.608 432.716 103.724C431.272 104.841 429.447 105.399 427.241 105.399ZM438.933 105V85.8662H441.71V105H438.933ZM444.372 105L450.59 85.8662H454.59L460.808 105H457.925L452.198 87.5404H452.916L447.255 105H444.372ZM447.601 100.682V98.0773H457.593V100.682H447.601ZM466.379 105V88.4838H460.015V85.8662H475.521V88.4838H469.156V105H466.379ZM477.913 105V85.8662H480.69V105H477.913ZM492.666 105.399C490.753 105.399 489.123 104.982 487.776 104.15C486.43 103.308 485.398 102.139 484.68 100.642C483.972 99.1447 483.617 97.4085 483.617 95.4331C483.617 93.4577 483.972 91.7215 484.68 90.2245C485.398 88.7274 486.43 87.5626 487.776 86.7299C489.123 85.8884 490.753 85.4676 492.666 85.4676C494.57 85.4676 496.196 85.8884 497.542 86.7299C498.898 87.5626 499.93 88.7274 500.638 90.2245C501.347 91.7215 501.701 93.4577 501.701 95.4331C501.701 97.4085 501.347 99.1447 500.638 100.642C499.93 102.139 498.898 103.308 497.542 104.15C496.196 104.982 494.57 105.399 492.666 105.399ZM492.666 102.754C494.021 102.772 495.146 102.475 496.041 101.864C496.944 101.244 497.622 100.385 498.074 99.2864C498.526 98.1792 498.752 96.8947 498.752 95.4331C498.752 93.9715 498.526 92.6959 498.074 91.6064C497.622 90.5079 496.944 89.6531 496.041 89.0419C495.146 88.4307 494.021 88.1206 492.666 88.1118C491.311 88.0941 490.181 88.3908 489.278 89.002C488.383 89.6132 487.71 90.4725 487.258 91.5798C486.806 92.6871 486.576 93.9715 486.567 95.4331C486.558 96.8947 486.78 98.1747 487.231 99.2732C487.683 100.363 488.361 101.213 489.264 101.824C490.177 102.436 491.311 102.746 492.666 102.754ZM504.352 105V85.8662H507.169L516.589 100.084V85.8662H519.406V105H516.589L507.169 90.7692V105H504.352Z" fill="#356FBB"/>
<defs>
<filter id="filter0_f_5_83" x="30.5787" y="11.0236" width="135.352" height="135.831" filterUnits="userSpaceOnUse" color-interpolation-filters="sRGB">
<feFlood flood-opacity="0" result="BackgroundImageFix"/>
<feBlend mode="normal" in="SourceGraphic" in2="BackgroundImageFix" result="shape"/>
<feGaussianBlur stdDeviation="8.19586" result="effect1_foregroundBlur_5_83"/>
</filter>
<filter id="filter1_f_5_83" x="30.5787" y="11.0236" width="135.352" height="135.831" filterUnits="userSpaceOnUse" color-interpolation-filters="sRGB">
<feFlood flood-opacity="0" result="BackgroundImageFix"/>
<feBlend mode="normal" in="SourceGraphic" in2="BackgroundImageFix" result="shape"/>
<feGaussianBlur stdDeviation="8.19586" result="effect1_foregroundBlur_5_83"/>
</filter>
<filter id="filter2_f_5_83" x="30.5787" y="11.0236" width="135.352" height="135.831" filterUnits="userSpaceOnUse" color-interpolation-filters="sRGB">
<feFlood flood-opacity="0" result="BackgroundImageFix"/>
<feBlend mode="normal" in="SourceGraphic" in2="BackgroundImageFix" result="shape"/>
<feGaussianBlur stdDeviation="8.19586" result="effect1_foregroundBlur_5_83"/>
</filter>
<filter id="filter3_f_5_83" x="30.5787" y="11.0236" width="135.352" height="135.831" filterUnits="userSpaceOnUse" color-interpolation-filters="sRGB">
<feFlood flood-opacity="0" result="BackgroundImageFix"/>
<feBlend mode="normal" in="SourceGraphic" in2="BackgroundImageFix" result="shape"/>
<feGaussianBlur stdDeviation="8.19586" result="effect1_foregroundBlur_5_83"/>
</filter>
<linearGradient id="paint0_linear_5_83" x1="97.7751" y1="0" x2="97.7751" y2="128.45" gradientUnits="userSpaceOnUse">
<stop offset="0.410448" stop-color="#356FBB"/>
<stop offset="0.740385" stop-color="white"/>
</linearGradient>
</defs>
</svg>
